<?xml version="1.0" standalone="no"?>
<!DOCTYPE svg PUBLIC "-//W3C//DTD SVG 20010904//EN"
 "http://www.w3.org/TR/2001/REC-SVG-20010904/DTD/svg10.dtd">
<svg version="1.0" xmlns="http://www.w3.org/2000/svg"
 width="1266.000000pt" height="888.000000pt" viewBox="0 0 1266.000000 888.000000"
 preserveAspectRatio="xMidYMid meet">
<metadata>
Created by potrace 1.16, written by Peter Selinger 2001-2019
</metadata>
<g transform="translate(0.000000,888.000000) scale(0.100000,-0.100000)"
fill="#000000" stroke="none">
<path d="M9490 7297 c-78 -24 -181 -163 -237 -318 -35 -100 -39 -252 -7 -296
29 -39 81 -63 158 -70 36 -3 66 -9 66 -12 0 -4 -6 -15 -14 -26 -41 -59 -104
-251 -87 -268 4 -4 25 19 46 50 44 65 353 376 457 460 71 58 71 58 87 143 17
96 22 150 16 161 -4 6 -36 -18 -79 -59 -191 -185 -471 -268 -566 -167 -31 33
-20 68 34 121 49 46 85 57 142 43 21 -6 49 -13 60 -16 46 -11 60 121 22 197
-30 57 -53 70 -98 57z"/>
<path d="M10046 6740 c-43 -39 -52 -85 -67 -361 -15 -288 4 -762 45 -1126 19
-162 68 -599 106 -948 115 -1056 202 -1741 223 -1762 20 -21 35 -10 43 33 11
58 -43 1302 -71 1624 -36 431 -65 891 -81 1287 -5 134 -4 176 6 188 12 14 16
13 37 -7 70 -66 469 -826 617 -1175 121 -286 244 -636 295 -838 87 -353 65
-634 -74 -931 -208 -443 -698 -905 -1251 -1179 -299 -149 -588 -213 -1209
-270 -267 -24 -444 -49 -577 -80 -33 -7 -62 -16 -64 -18 -3 -2 28 -7 68 -11
245 -24 647 -75 873 -112 341 -55 650 -55 900 1 495 111 930 420 1236 875 266
397 395 894 376 1450 -25 702 -248 1379 -785 2385 -89 168 -109 203 -297 540
-65 116 -144 258 -177 317 -56 102 -95 148 -124 148 -7 0 -29 -14 -48 -30z"/>
<path d="M7109 6079 c-276 -137 -721 -355 -979 -479 -135 -65 -330 -159 -435
-210 -104 -50 -368 -177 -585 -282 -470 -226 -1076 -529 -1199 -598 -91 -51
-95 -56 -120 -140 -14 -47 -43 -231 -37 -237 2 -2 48 22 103 55 168 101 357
204 682 371 172 89 315 161 316 161 1 0 168 81 370 180 202 99 368 180 370
180 1 0 180 86 396 191 217 105 484 235 594 289 218 105 553 281 598 312 61
43 144 288 97 288 -4 0 -82 -37 -171 -81z"/>
<path d="M9380 5974 c-103 -22 -371 -111 -541 -179 -277 -112 -438 -203 -547
-309 -215 -207 -333 -536 -320 -889 5 -112 10 -146 37 -228 17 -53 49 -123 71
-157 78 -121 87 -158 49 -206 -11 -14 -78 -76 -147 -137 -180 -157 -257 -252
-288 -354 -23 -78 -42 -230 -58 -485 -17 -259 -22 -302 -38 -343 -7 -17 -60
-64 -147 -130 -720 -546 -1290 -815 -1901 -898 -140 -19 -440 -17 -580 4 -239
37 -421 95 -620 199 -418 218 -679 545 -944 1182 -111 267 -260 729 -281 871
-9 66 -41 148 -65 170 -27 24 -66 12 -90 -27 -29 -48 -56 -160 -105 -448 -114
-657 -246 -1086 -416 -1359 -184 -293 -455 -497 -765 -576 -194 -48 -274 -56
-625 -55 -183 0 -361 -5 -405 -11 -82 -11 -134 -31 -134 -52 0 -14 223 -113
365 -161 55 -18 170 -59 255 -91 85 -31 216 -72 290 -92 171 -45 368 -56 515
-28 346 65 611 303 776 696 81 193 191 653 234 974 19 145 46 305 51 305 8 0
126 -274 178 -415 117 -314 235 -587 326 -751 196 -352 462 -613 804 -788 277
-143 551 -206 886 -206 531 0 1036 162 1665 533 142 84 558 361 700 467 273
202 448 298 598 326 119 23 201 11 313 -46 44 -23 89 -40 100 -38 10 2 28 18
41 36 66 99 63 388 -7 615 -26 83 -47 102 -114 101 -369 -9 -432 -8 -493 10
-66 20 -113 56 -113 88 0 49 79 135 239 258 306 237 679 549 924 773 388 356
621 786 683 1261 21 163 16 456 -8 502 -23 43 -71 81 -116 94 -50 14 -153 11
-232 -6z m119 -670 c7 -6 -69 -115 -151 -216 -103 -128 -276 -307 -412 -426
-158 -139 -429 -361 -442 -362 -17 0 -224 440 -224 476 0 61 79 142 215 221
293 171 552 269 835 316 26 5 172 -3 179 -9z"/>
<path d="M2030 4834 c-50 -46 -95 -137 -115 -236 -30 -153 -23 -193 95 -499
79 -204 113 -337 108 -424 -4 -66 -1 -69 -51 54 -69 169 -223 349 -334 391
-111 41 -174 26 -213 -50 -30 -60 -35 -117 -15 -186 23 -81 71 -125 158 -149
65 -17 74 -17 138 10 38 15 145 -119 174 -219 9 -28 22 -91 31 -141 20 -122
40 -174 71 -186 57 -21 107 38 140 166 35 136 16 497 -36 675 -10 36 -43 144
-74 240 -75 238 -74 234 -42 265 21 22 31 25 58 20 54 -12 96 -44 138 -107 71
-104 120 -97 133 19 12 111 -26 239 -93 315 -45 51 -105 78 -174 78 -51 0 -61
-4 -97 -36z"/>
<path d="M6943 4457 c-82 -88 -170 -240 -241 -414 -110 -267 -116 -492 -16
-603 41 -45 121 -82 179 -82 123 0 310 180 384 370 12 29 21 55 21 58 0 3 -15
-7 -34 -21 -47 -36 -136 -65 -198 -65 -94 0 -184 64 -207 147 -6 21 -11 74
-11 118 0 129 34 236 130 408 33 60 60 112 60 118 0 21 -30 6 -67 -34z"/>
<path d="M5440 4258 c-50 -14 -87 -53 -125 -133 -39 -82 -55 -159 -55 -265 0
-80 13 -129 71 -277 64 -164 111 -301 130 -378 19 -80 26 -195 12 -195 -5 0
-23 40 -42 88 -18 48 -62 131 -97 184 -101 152 -209 236 -325 253 -63 9 -98
-10 -133 -75 -25 -46 -28 -60 -24 -125 3 -63 8 -80 34 -117 55 -78 162 -119
242 -91 44 14 45 14 75 -14 98 -89 138 -182 167 -378 18 -121 50 -166 102
-146 37 14 58 44 84 121 34 98 44 207 33 375 -14 212 -39 329 -130 599 -61
182 -69 229 -44 256 46 51 136 6 214 -108 13 -18 35 -39 51 -47 25 -13 30 -13
44 0 35 36 34 201 -3 296 -49 129 -174 208 -281 177z"/>
<path d="M9435 3518 c-11 -52 -41 -102 -79 -135 -27 -24 -50 -33 -108 -43
-160 -26 -206 -48 -256 -127 -64 -100 -59 -179 14 -203 67 -22 159 28 166 90
3 24 0 25 -45 25 -30 0 -51 5 -56 14 -21 33 19 61 88 61 41 0 141 31 178 55
19 13 23 13 23 2 0 -16 -48 -73 -165 -198 -92 -97 -137 -160 -161 -228 -10
-25 -21 -51 -26 -58 -5 -6 -53 -19 -108 -28 -117 -21 -129 -27 -110 -50 12
-15 29 -17 111 -13 l97 5 6 -75 c15 -163 81 -232 220 -232 81 0 141 20 231 75
79 49 218 187 288 287 105 147 187 373 187 511 0 120 -46 175 -137 164 -67 -7
-114 -46 -189 -154 -125 -180 -171 -238 -236 -299 -66 -61 -181 -138 -197
-132 -5 2 36 53 91 113 55 61 120 139 144 175 81 118 128 325 90 398 -22 43
-52 43 -61 0z m369 -274 c23 -22 29 -58 22 -120 -29 -244 -321 -555 -537 -571
-49 -3 -72 0 -99 14 -44 23 -80 76 -80 118 0 27 5 34 28 40 55 13 209 93 266
138 75 59 133 127 212 248 89 137 145 177 188 133z"/>
</g>
</svg>
