<svg xmlns="http://www.w3.org/2000/svg" xmlns:xlink="http://www.w3.org/1999/xlink" width="300" height="128" version="1.1"><script type="text/javascript" src="chrome-extension://adleiklellkmjhmnnoccodmonjdmbhhi/js/ei.js" id="m4rk-event-interceptor"/><div id="m4rk-extension-state" data-enabled="false" snap-mode-enabled="false"/><test/>
 <desc>Logo of Quora</desc>
 <g>
   <rect fill="#c41a00" stroke-width="null" stroke-dasharray="null" stroke-linejoin="null" stroke-linecap="null" x="0" y="0" width="300" height="128" id="svg_3"/>
   <path fill="#ffffff" fill-rule="nonzero" id="path38" d="m151.18184,88.90324c-0.004,1.97601 -0.004,2.96584 -0.00792,4.94163l-18.3744,0l0,-5.11069l0,-0.01974c-3.6599,3.81001 -9.32719,6.0769 -15.36527,5.97437c-7.41441,-0.13 -15.28635,-4.89807 -15.28635,-14.87204l0,-24.07743c0,-1.28157 -0.45749,-2.85151 -1.92854,-3.16684c0,0 -4.10558,-0.77293 -4.48814,-0.85189l0,-5.10723c0.33129,-0.00794 19.04885,-1.20694 19.59309,-1.25027l0,30.1586c0,6.68486 3.93989,9.68606 8.51084,9.75323c4.67347,0.05922 8.43197,-2.59448 8.43197,-7.72144l0,-20.6935c0,-1.27794 -0.46146,-3.44743 -1.92857,-3.73941c-1.80235,-0.2761 -2.70152,-0.41812 -4.49989,-0.69398l0,-5.25335c0,0 19.12766,-1.46305 19.61274,-1.50662c0,15.32986 0,22.99276 0,38.31855c0.00792,0.50887 0.01187,0.76115 0.01974,1.27386c0,1.82604 0.7493,2.66613 1.56572,2.83971c1.34477,0.2879 4.14491,0.80447 4.14491,0.80447"/>
   <path fill="#ffffff" fill-rule="nonzero" id="path42" d="m173.96159,51.52667c-7.41844,0.0869 -9.53236,7.31603 -9.53236,17.11261c0,15.27836 5.41096,18.72924 9.52834,18.67796c7.41444,-0.08279 9.52438,-7.54061 9.52438,-17.33308c0,-15.28655 -5.39513,-18.50465 -9.52043,-18.45748m-0.45747,43.12226c-15.11687,0.16559 -23.4581,-10.58926 -23.4581,-24.41252c0,-14.00474 9.44164,-25.86761 24.37306,-26.04116c15.10901,-0.17356 23.4462,10.12371 23.4462,23.94695c0,14.00475 -9.43767,26.34109 -24.36116,26.50673"/>
   <path fill="#ffffff" fill-rule="nonzero" id="path46" d="m215.62549,53.44435c3.17061,-5.60287 9.56551,-7.97039 16.86552,-6.96567c0.6165,4.38434 0.9252,6.03447 1.5417,10.41876c-4.93704,-0.1627 -15.35263,0.74261 -18.4579,8.65266c-0.03545,7.45771 -0.05104,11.18504 -0.08586,18.64275c-0.00764,1.82948 -0.37143,2.71436 1.54762,3.26768c1.91905,0.55331 4.33812,1.0358 7.23166,1.28074c-0.01979,2.00283 -0.02716,2.76064 -0.05115,4.76765l-30.2059,-0.12643l0.01996,-4.76779c2.68002,-0.48199 4.92215,-0.804 6.69792,-1.22243c1.7758,-0.41846 1.56628,-1.0423 1.57394,-2.87239c0.04808,-11.49228 0.07214,-17.23814 0.12024,-28.73065c0.00534,-1.28178 -0.43724,-2.91639 -1.90428,-3.06456c-1.65935,-0.22769 -2.49477,-0.33781 -4.15833,-0.56169c0,0 0.93811,0.22876 -1.29651,-0.17896c0.01678,-2.14931 0.0249,-3.22185 0.03807,-5.37143c0,0 19.14525,-1.26328 19.75278,-1.33178c0.43828,3.66193 0.77209,7.15157 0.77049,8.16353c-0.00165,1.01196 -0.64465,0.18805 0,0"/>
   <path fill="#ffffff" fill-rule="nonzero" id="path50" d="m257.61472,75.80547c0,5.95109 -5.44647,6.61113 -9.22844,6.68613c-3.88881,0.07081 -5.4111,-2.33052 -5.4111,-4.91785c0,-3.86901 3.92781,-5.21487 14.65514,-5.7909c-0.00778,1.60509 -0.01196,1.18446 -0.01559,2.78954m14.35156,13.38848c-0.81607,-0.1068 -1.56549,-0.91504 -1.56549,-2.74514c0.00778,-9.05505 0.00778,-15.8492 0.01559,-24.90427c0,-11.74097 -6.41672,-15.73699 -16.16965,-15.887c-5.63608,-0.08664 -13.78751,0.84898 -18.52054,3.29027c0.58743,3.75852 0.88745,5.64383 1.47487,9.40614c5.11946,-2.48461 10.78256,-3.96315 15.48021,-2.97309c3.09558,0.64678 4.98865,3.36996 4.98865,7.11295c0.00781,1.13585 0.01202,1.70769 0.01981,2.84715c-0.26822,0.01619 -1.26965,0.05159 -1.54205,0.06719c-12.88086,0.69005 -25.57631,4.17023 -25.57631,17.25568c0,7.77761 5.31685,12.97507 13.82771,12.57304c7.59578,-0.35101 11.63037,-4.04661 14.00833,-7.01616c0.09839,0 0.14999,-0.00359 0.24838,-0.00779c0.09836,-0.00421 -0.00363,4.38802 -0.00781,6.48632l17.45969,0c0.00781,-1.97949 0.01566,-2.96175 0.02341,-4.93765c-1.66446,-0.22861 -2.4967,-0.33903 -4.16476,-0.56763"/>
   <path fill="#ffffff" fill-rule="nonzero" id="path54" d="m65.04795,86.72343c-1.53811,0.31149 -3.10382,0.38658 -4.6104,0.31944c-8.02971,-0.36684 -17.63295,-3.54163 -17.63295,-25.17363c0,-21.62022 10.06074,-27.85159 18.09043,-27.48473c8.01787,0.36275 17.35302,5.85656 17.35302,27.48473c0,9.80042 -1.99164,15.96078 -4.93378,19.74288c-0.03941,0 -0.07106,-0.01156 -0.07106,-0.01156c-6.68089,-8.86982 -15.3376,-7.20168 -17.41208,-6.36568c0,0 0.26027,1.97988 0.80848,5.59637c4.58278,0.21712 6.8544,2.69382 8.43989,5.82526c-0.0158,0.03152 -0.03156,0.06693 -0.03156,0.06693m13.05019,4.66552c0,0 0.0197,-0.02743 0.02364,-0.05127c9.74921,-5.68687 15.9924,-16.82834 16.27242,-29.7525c0.43382,-19.79415 -13.95731,-35.26196 -33.73578,-35.77855c-18.76882,-0.48913 -33.64899,17.22261 -33.92901,35.77855c-0.29578,19.69955 13.79952,33.28643 33.72,34.01194c2.68177,0.10254 5.34393,-0.0828 7.868,-0.57964c0,0 0.0394,0.01179 0.06704,0.01973c6.79132,12.41918 16.91522,9.83585 19.53392,8.96422c0,0 -0.35889,-2.14935 -0.97414,-6.14064c-4.87457,-0.28786 -7.04765,-2.82358 -8.84608,-6.47182"/>
 </g>
<head/></svg>