<?xml version="1.0" standalone="no"?>
<!DOCTYPE svg PUBLIC "-//W3C//DTD SVG 20010904//EN"
 "http://www.w3.org/TR/2001/REC-SVG-20010904/DTD/svg10.dtd">
<svg version="1.0" xmlns="http://www.w3.org/2000/svg"
 width="700.000000pt" height="700.000000pt" viewBox="0 0 700.000000 700.000000"
 preserveAspectRatio="xMidYMid meet">
<metadata>
Created by potrace 1.14, written by Peter Selinger 2001-2017
</metadata>
<g transform="translate(0.000000,700.000000) scale(0.100000,-0.100000)"
fill="#000000" stroke="none">
<path d="M3477 5433 c-21 -34 -41 -68 -110 -187 -10 -17 -40 -67 -65 -111 -25
-44 -50 -81 -54 -83 -4 -2 -8 -8 -8 -13 0 -6 -31 -63 -68 -127 -38 -64 -128
-218 -199 -342 -72 -124 -140 -241 -152 -260 -11 -19 -24 -42 -28 -50 -4 -8
-26 -46 -48 -85 -23 -38 -85 -144 -137 -235 -89 -154 -431 -744 -556 -960 -31
-52 -63 -108 -71 -123 -9 -16 -20 -36 -26 -46 -17 -28 -105 -179 -172 -296
-35 -60 -68 -117 -72 -125 -143 -240 -482 -832 -479 -835 7 -7 467 -7 477 -1
8 5 108 171 154 256 11 19 28 47 38 62 11 14 19 28 19 31 0 3 41 73 90 157 50
84 90 153 90 155 0 2 21 39 47 82 25 43 59 103 76 133 16 30 36 62 43 71 8 8
14 18 14 21 0 5 133 234 368 638 30 52 69 120 85 150 16 30 36 62 43 71 8 8
14 18 14 21 0 4 19 39 43 80 24 40 55 93 69 118 14 25 114 198 223 385 109
187 222 383 253 435 95 165 125 211 133 203 6 -7 820 -1414 881 -1523 11 -19
29 -51 40 -70 11 -19 81 -141 156 -270 74 -129 147 -255 162 -280 15 -25 39
-66 53 -92 15 -26 67 -117 116 -202 50 -85 99 -170 110 -188 175 -304 253
-434 266 -440 15 -9 464 -12 473 -4 4 4 -51 101 -328 581 -73 127 -141 244
-150 260 -16 28 -97 168 -228 395 -30 52 -107 185 -170 295 -63 110 -123 214
-133 230 -10 17 -24 41 -32 55 -7 14 -49 86 -92 160 -43 74 -87 151 -97 170
-11 19 -24 40 -28 45 -4 6 -19 30 -32 55 -29 53 -272 474 -473 820 -78 135
-153 265 -167 290 -14 25 -66 115 -115 200 -127 217 -139 238 -175 303 -18 31
-36 57 -40 57 -4 0 -18 -17 -31 -37z"/>
<path d="M3474 3993 c-17 -27 -84 -140 -149 -253 -65 -113 -126 -217 -136
-232 -11 -15 -19 -29 -19 -32 0 -2 -78 -139 -173 -304 -96 -164 -177 -305
-180 -313 -4 -8 -15 -27 -26 -44 -10 -16 -75 -131 -146 -255 -70 -124 -136
-237 -146 -252 -11 -15 -19 -29 -19 -32 0 -3 -15 -31 -34 -63 -94 -160 -166
-296 -160 -302 8 -9 1601 -7 1610 1 4 4 -8 36 -26 70 -58 109 -182 322 -195
337 -17 17 -60 20 -384 22 -140 0 -261 3 -268 6 -9 4 -10 9 -4 17 5 6 70 117
144 246 74 129 194 339 267 465 73 127 138 239 144 250 6 11 47 82 90 158 l79
139 -36 71 c-76 148 -188 347 -197 347 -3 0 -19 -21 -36 -47z"/>
<path d="M3892 3293 c-30 -45 -214 -356 -287 -488 -12 -22 -40 -71 -62 -110
-23 -38 -39 -72 -37 -74 2 -2 79 -5 170 -6 152 -1 168 -3 180 -20 8 -11 85
-141 171 -290 86 -148 189 -325 230 -393 40 -68 73 -125 73 -127 0 -2 23 -40
50 -85 28 -45 50 -84 50 -87 0 -3 9 -18 21 -34 l20 -29 240 0 c131 0 239 2
239 5 0 3 -127 225 -283 493 -156 268 -295 507 -309 532 -14 25 -87 151 -163
280 -75 129 -145 249 -155 266 -90 156 -114 194 -121 194 -4 0 -16 -12 -27
-27z"/>
</g>
</svg>
